<svg width="25" height="24" viewBox="0 0 25 24" fill="none" xmlns="http://www.w3.org/2000/svg">
<path d="M8.40409 21.0004C6.00409 21.0004 3.6041 20.4004 1.6041 19.2004C1.3041 19.0004 1.2041 18.6004 1.3041 18.3004C1.4041 18.0004 1.7041 17.7004 2.1041 17.8004C3.5041 18.0004 4.90409 17.7004 6.20409 17.1004C4.80409 16.5004 3.7041 15.5004 3.1041 14.0004C3.0041 13.7004 3.00409 13.4004 3.2041 13.2004L3.3041 13.1004C2.3041 12.2004 1.7041 10.9004 1.6041 9.40039C1.6041 9.10039 1.8041 8.80039 2.0041 8.70039C2.1041 8.70039 2.2041 8.6004 2.3041 8.6004C1.7041 7.2004 1.8041 5.60039 2.6041 4.20039C2.7041 4.00039 2.90409 3.8004 3.2041 3.8004C3.40409 3.8004 3.7041 3.9004 3.8041 4.1004C5.6041 6.3004 8.2041 7.8004 11.1041 8.1004C11.1041 6.7004 11.5041 4.8004 13.1041 3.8004C13.9041 3.3004 14.9041 3.00039 15.9041 2.90039C17.1041 2.90039 18.2041 3.3004 19.1041 4.1004C19.8041 3.9004 20.5041 3.6004 21.1041 3.3004C21.4041 3.1004 21.7041 3.20039 21.9041 3.40039C22.1041 3.60039 22.2041 3.90039 22.1041 4.20039C22.0041 4.40039 21.9041 4.70039 21.8041 4.90039C22.1041 4.90039 22.3041 4.90039 22.5041 5.20039C22.7041 5.50039 22.7041 5.8004 22.5041 6.1004C22.0041 6.9004 21.3041 7.6004 20.6041 8.1004C20.8041 11.1004 19.6041 14.3004 17.3041 16.8004C15.0041 19.6004 11.8041 21.0004 8.40409 21.0004ZM5.20409 19.1004C6.30409 19.4004 7.4041 19.6004 8.5041 19.6004C11.4041 19.6004 14.2041 18.3004 16.3041 16.0004C18.4041 13.7004 19.5041 10.7004 19.2041 8.0004C19.2041 7.7004 19.3041 7.5004 19.5041 7.3004C19.6041 7.2004 19.7041 7.2004 19.7041 7.1004C19.3041 7.1004 19.0041 6.9004 18.9041 6.6004C18.8041 6.3004 18.9041 6.0004 19.1041 5.8004C19.0041 5.8004 19.0041 5.8004 18.9041 5.8004C18.6041 5.9004 18.4041 5.8004 18.2041 5.6004C17.6041 4.9004 16.7041 4.5004 15.8041 4.5004C15.1041 4.5004 14.4041 4.7004 13.8041 5.1004C12.4041 5.9004 12.4041 8.1004 12.6041 8.8004C12.7041 9.0004 12.6041 9.3004 12.5041 9.5004C12.4041 9.7004 12.1041 9.8004 11.9041 9.8004C8.70409 9.7004 5.7041 8.3004 3.5041 6.1004C3.2041 7.5004 3.8041 8.90039 5.0041 9.70039C5.3041 9.90039 5.4041 10.2004 5.3041 10.5004C5.2041 10.8004 4.9041 11.0004 4.6041 11.0004C4.2041 11.0004 3.9041 11.0004 3.5041 10.9004C4.0041 11.9004 4.9041 12.7004 6.1041 13.0004C6.4041 13.1004 6.6041 13.3004 6.6041 13.6004C6.6041 13.9004 6.60409 14.2004 6.40409 14.3004C6.10409 14.6004 5.7041 14.7004 5.3041 14.7004C6.0041 15.5004 7.0041 15.9004 8.1041 16.0004C8.4041 16.0004 8.7041 16.2004 8.8041 16.5004C8.9041 16.8004 8.8041 17.1004 8.6041 17.3004C7.6041 18.2004 6.40409 18.7004 5.20409 19.1004Z" fill="#FFFFFF"/>
</svg>
