<svg width="25" height="24" viewBox="0 0 25 24" fill="none" xmlns="http://www.w3.org/2000/svg">
<path d="M14.4041 22.7998H9.0041V14.3998H5.7041V9.1998H9.0041V6.8998C9.0041 6.6998 9.00411 4.5998 10.6041 2.9998C11.7041 1.8998 13.3041 1.2998 15.3041 1.2998C16.1041 1.2998 16.9041 1.3998 17.7041 1.4998L18.3041 1.59981V6.3998H16.1041C15.6041 6.3998 14.9041 6.49981 14.7041 6.59981H14.6041C14.4041 6.79981 14.4041 6.7998 14.4041 6.8998V9.1998H18.2041L17.6041 14.3998H14.3041V22.7998H14.4041ZM10.5041 21.2998H12.9041V12.8998H16.3041L16.5041 10.6998H12.8041V6.8998C12.8041 6.0998 13.3041 5.5998 13.6041 5.3998L13.7041 5.2998C14.0041 4.9998 14.8041 4.7998 16.0041 4.7998H16.8041V2.7998C16.3041 2.6998 15.7041 2.6998 15.2041 2.6998C13.6041 2.6998 12.4041 3.0998 11.6041 3.8998C10.4041 5.0998 10.5041 6.6998 10.5041 6.6998V10.4998H7.2041V12.6998H10.5041V21.2998Z" fill="#46555F"/>
</svg>
