<svg width="24" height="24" viewBox="0 0 24 24" fill="none" xmlns="http://www.w3.org/2000/svg">
<path fill-rule="evenodd" clip-rule="evenodd" d="M2.95043 11.9C2.95043 6.91421 7.11465 2.75 12.1004 2.75C17.0912 2.75 21.2504 6.81913 21.2504 11.9C21.2504 16.8907 17.1813 21.05 12.1004 21.05C10.3317 21.05 8.67996 20.585 7.31646 19.676L7.00652 19.4693L3.27723 20.7632L4.63445 17.2193L4.43643 16.9025C3.50114 15.406 2.95043 13.742 2.95043 11.9ZM12.1004 1.25C6.28622 1.25 1.45043 6.08579 1.45043 11.9C1.45043 13.9225 2.02079 15.7501 2.96895 17.374L0.723633 23.2368L6.80363 21.1274C8.37159 22.0816 10.1997 22.55 12.1004 22.55C18.0196 22.55 22.7504 17.7093 22.7504 11.9C22.7504 5.98087 17.9097 1.25 12.1004 1.25ZM9.19977 5.75C8.78841 5.75 8.404 5.93191 8.10808 6.1254C7.79513 6.33002 7.4931 6.60533 7.23032 6.91191C6.72581 7.5005 6.24977 8.34443 6.24977 9.2C6.24977 9.24726 6.24959 9.29563 6.24941 9.34508V9.34524C6.24717 9.956 6.24432 10.7329 6.56639 11.6589C6.91439 12.6594 7.61655 13.7774 8.96944 15.1303C10.3269 16.4878 11.4711 17.188 12.4815 17.5345C13.4178 17.8555 14.1928 17.8525 14.7667 17.8503C14.8123 17.8502 14.8567 17.85 14.8998 17.85C15.7553 17.85 16.5993 17.374 17.1879 16.8694C17.4944 16.6067 17.7697 16.3046 17.9744 15.9917C18.1679 15.6958 18.3498 15.3114 18.3498 14.9V14.65L18.1998 14.45C17.8762 14.0186 17.4774 13.567 17.1176 13.2072C16.9377 13.0273 16.7591 12.8618 16.5974 12.7299C16.4648 12.6217 16.257 12.4619 16.0369 12.3885L16.0096 12.3794L15.4921 12.25H15.3998C15.042 12.25 14.6969 12.4126 14.4365 12.5634C14.191 12.7056 13.9283 12.8931 13.6587 13.11C13.2229 12.9127 12.6418 12.5814 12.1301 12.0697C11.7403 11.6798 11.4018 11.317 11.1517 11.0311C11.0543 10.9198 10.9725 10.8227 10.9074 10.742C11.1793 10.4471 11.4393 10.1238 11.6259 9.7971C11.8465 9.41118 12.1108 8.7586 11.7584 8.14058C11.6065 7.84751 11.3286 7.49422 10.9994 7.13966C10.6479 6.7612 10.1956 6.3362 9.66829 5.91435L9.46285 5.75H9.19977ZM8.8391 10.7L9.50307 11.364C9.55657 11.4473 9.61819 11.5292 9.67228 11.5986C9.76657 11.7195 9.88573 11.8622 10.0228 12.0189C10.2977 12.333 10.6593 12.7202 11.0694 13.1303C11.8517 13.9125 12.7337 14.3581 13.2914 14.5844L13.9479 14.9126L14.5056 14.3549C14.7762 14.131 15.0063 13.9668 15.188 13.8616C15.2768 13.8102 15.3383 13.7822 15.3757 13.7671L15.5379 13.8076C15.5567 13.8205 15.593 13.8463 15.649 13.892C15.7592 13.9819 15.8993 14.1102 16.0569 14.2678C16.2932 14.5041 16.5498 14.7872 16.7799 15.0694C16.7636 15.0993 16.7436 15.1331 16.7189 15.1708C16.6048 15.3454 16.4301 15.5433 16.2117 15.7306C15.7503 16.126 15.2442 16.35 14.8998 16.35L14.7795 16.3502C14.2083 16.3513 13.6589 16.3524 12.968 16.1155C12.2285 15.862 11.2726 15.3122 10.0301 14.0697C8.78299 12.8226 8.23515 11.8906 7.98314 11.1661C7.74753 10.4887 7.74851 9.94342 7.74961 9.32812L7.74977 9.2C7.74977 8.85557 7.97372 8.3495 8.36921 7.88809C8.55643 7.66967 8.75441 7.49498 8.92895 7.38085C8.96286 7.35868 8.99361 7.34026 9.02118 7.32495C9.36789 7.6202 9.66482 7.90688 9.90017 8.16034C10.2032 8.48671 10.3684 8.71982 10.4244 8.82656C10.4165 8.86072 10.3927 8.93186 10.3236 9.0529C10.1734 9.3158 9.90423 9.63488 9.56944 9.96967L8.8391 10.7Z" fill="#46555F"/>
</svg>
