<svg width="24" height="24" viewBox="0 0 24 24" fill="none" xmlns="http://www.w3.org/2000/svg">
<path fill-rule="evenodd" clip-rule="evenodd" d="M11.3 22.7998H11.3C11.3775 22.7998 11.47 22.7848 11.5833 22.7664C11.7625 22.7373 11.9937 22.6998 12.3 22.6998C13.5 22.5998 14.5 22.3998 15.1 22.1998C15.8 21.9998 16.2 21.7998 16.2 21.7998C16.5 21.6998 16.6 21.3998 16.6 21.0998L16.5 19.4998C16.5 19.1998 16.4 18.9998 16.2 18.8998C16 18.7998 15.7 18.6998 15.5 18.7998C15.4566 18.7998 15.3754 18.8187 15.2484 18.8482C15.0829 18.8867 14.8394 18.9432 14.5 18.9998C14 19.0998 13.2 19.1998 12.3 19.1998C11.4 19.1998 10.6 19.1998 10 18.8998C9.5 18.6998 9.2 18.3998 9.1 17.8998C10.4 18.0998 11.9 18.1998 13.3 18.1998C14.5 18.1998 15.5 18.0998 16 17.9998H16.2C17.5 17.8998 18.8 17.3998 19.8 16.6998C20.9 15.9998 21.6 15.0998 21.8 14.1998C22 13.1998 22.1 11.9998 22.2 10.4998V8.5998C22.2 6.0998 21.3 4.5998 20.6 3.6998C19.8 2.6998 19 2.2998 18.9 2.2998C17.5 1.6998 15 1.2998 12.1 1.2998C9.2 1.2998 6.7 1.6998 5.3 2.2998C5.27803 2.32177 5.2223 2.35339 5.1402 2.39995C4.84855 2.56537 4.22428 2.91946 3.6 3.6998C2.9 4.5998 2 6.0998 2 8.5998V9.3998C2 11.6998 2 14.3998 2.5 16.5998C3.2 19.6998 4.8 21.4998 7.3 22.1998C8.2 22.4998 9 22.5998 9.9 22.6998C10.3 22.7998 10.8 22.7998 11.3 22.7998ZM5.8 3.6998C7 3.0998 9.4 2.7998 12 2.7998C14.6 2.7998 17 3.0998 18.2 3.4998C18.2 3.4998 18.8 3.7998 19.4 4.4998C20.2 5.4998 20.6 6.8998 20.6 8.4998V10.2998C20.5 11.5998 20.4 12.7998 20.2 13.6998C20.1 14.1998 19.6 14.7998 18.9 15.2998C18 15.8998 17 16.2998 15.9 16.3998H15.7C15.1 16.4998 14.3 16.5998 13.1 16.5998C11.4 16.6998 9.7 16.4998 8.2 16.0998C8 15.9998 7.8 16.0998 7.6 16.1998C7.4 16.3998 7.3 16.5998 7.3 16.7998V17.1998V17.5998C7.5 18.8998 8.1 19.6998 9.2 20.1998C10 20.5998 11 20.6998 12 20.6998C12.6492 20.7647 13.2984 20.7032 13.8382 20.6521C14.1298 20.6244 14.3895 20.5998 14.6 20.5998H14.8V20.7998C14.75 20.7998 14.675 20.8248 14.6 20.8498C14.525 20.8748 14.45 20.8998 14.4 20.8998C14.3098 20.9179 14.2098 20.9392 14.1 20.9625C13.6015 21.0687 12.9015 21.2178 12 21.2998C11.3 21.3998 10.7 21.3998 10 21.2998C9.2 21.2998 8.4 21.0998 7.6 20.8998C5.7 20.2998 4.5 18.8998 3.9 16.3998C3.4 14.2998 3.4 11.8998 3.4 9.4998V8.6998C3.4 6.9998 3.8 5.6998 4.6 4.6998C5.2 3.9998 5.8 3.6998 5.8 3.6998ZM16.4998 6.8C15.8998 6.2 15.0998 5.8 14.2998 5.8C13.4998 5.8 12.7998 6.1 12.2998 6.8L11.7998 7.6L11.2998 6.8C10.8998 6.1 10.0998 5.8 9.39975 5.8C8.59975 5.8 7.69975 6.2 7.19975 6.8C6.51294 7.63944 6.52496 8.30417 6.56919 10.7496C6.58292 11.5087 6.59975 12.4393 6.59975 13.6H7.99975V9.2C7.99975 8.2 8.79975 7.7 9.49975 7.7C10.3998 7.7 11.1998 8.3 11.1998 9.5V12H12.4998V9.5C12.4998 8.3 13.3998 7.7 14.1998 7.7C14.8998 7.7 15.6998 8.2 15.6998 9.2V13.6H17.0998C17.0998 12.2869 17.1285 11.2682 17.1513 10.4593C17.2136 8.24969 17.2318 7.60522 16.4998 6.8ZM11.8998 5.4C12.4998 4.8 13.3998 4.5 14.2998 4.5C15.4998 4.5 16.5998 5 17.6998 5.9C18.7114 7.00359 18.7081 8.02261 18.701 10.2016C18.7004 10.3919 18.6998 10.5911 18.6998 10.8V13.6C18.6998 14.4 17.9998 15 17.2998 15H15.8998C15.0998 15 14.4998 14.3 14.4998 13.6V9.2C14.4998 9.1 14.4998 9 14.2998 9C14.1998 9 14.0998 9.1 14.0998 9.1C13.9998 9.2 13.9998 9.3 13.9998 9.5V12C13.9998 12.7 13.2998 13.3 12.5998 13.3H11.2998C10.4998 13.3 9.89975 12.7 9.89975 12V9.5C9.89975 9.2 9.79975 9.1 9.59975 9.1H9.39975V9.2V13.6C9.39975 14.4 8.69975 15 7.99975 15H6.69975C5.89975 15 5.29975 14.3 5.29975 13.6V10.8C5.19975 8.2 5.19975 7.1 6.29976 5.9C7.09975 5 8.29975 4.5 9.49975 4.5C10.3998 4.5 11.1998 4.8 11.8998 5.4Z" fill="#FFFFFF"/>
</svg>
