<svg width="25" height="24" viewBox="0 0 25 24" fill="none" xmlns="http://www.w3.org/2000/svg">
<path fill-rule="evenodd" clip-rule="evenodd" d="M6.00409 22.8002C3.40409 22.8002 1.2041 20.7002 1.2041 18.0002V6.0002C1.2041 3.4002 3.30409 1.2002 6.00409 1.2002H18.0041C20.6041 1.2002 22.8041 3.3002 22.8041 6.0002V18.0002C22.8041 20.6002 20.6041 22.8002 18.0041 22.8002H6.00409ZM6.00409 2.8002C4.20409 2.8002 2.80408 4.3002 2.80408 6.0002V18.0002C2.80408 19.8002 4.30409 21.2002 6.00409 21.2002H18.0041C19.8041 21.2002 21.2041 19.7002 21.2041 18.0002V6.0002C21.2041 4.2002 19.7041 2.8002 18.0041 2.8002H6.00409ZM12.0041 17.8002C8.80409 17.8002 6.2041 15.2002 6.2041 12.0002C6.2041 8.8002 8.80409 6.2002 12.0041 6.2002C15.2041 6.2002 17.8041 8.8002 17.8041 12.0002C17.8041 15.2002 15.2041 17.8002 12.0041 17.8002ZM12.0041 7.8002C9.70409 7.8002 7.80408 9.7002 7.80408 12.0002C7.80408 14.3002 9.70409 16.2002 12.0041 16.2002C14.3041 16.2002 16.2041 14.3002 16.2041 12.0002C16.2041 9.7002 14.3041 7.8002 12.0041 7.8002ZM19.4039 5.79961C19.4039 6.46235 18.8667 6.9996 18.2039 6.9996C17.5412 6.9996 17.0039 6.46235 17.0039 5.79961C17.0039 5.13686 17.5412 4.59961 18.2039 4.59961C18.8667 4.59961 19.4039 5.13686 19.4039 5.79961Z" fill="#FFFFFF"/>
</svg>
