<svg width="25" height="24" viewBox="0 0 25 24" fill="none" xmlns="http://www.w3.org/2000/svg">
<path fill-rule="evenodd" clip-rule="evenodd" d="M17.8037 6.2998H22.8037V19.7998H17.8037V22.7998H6.30371V19.7998H1.30371V6.2998H6.30371V1.2998H17.8037V6.2998ZM16.3037 2.7998H7.80371V6.2998H16.3037V2.7998ZM7.70374 21.2998H16.2037V14.7998H7.70374V21.2998ZM17.7037 18.2998H21.2037V7.7998H17.7037H6.20374H2.70374V18.2998H6.20374V13.2998H17.7037V18.2998ZM17.2041 10.6004C17.2041 11.2004 17.7041 11.8004 18.4041 11.8004C19.1041 11.8004 19.6041 11.2004 19.6041 10.6004C19.6041 10.0004 19.0041 9.40039 18.4041 9.40039C17.8041 9.40039 17.2041 10.0004 17.2041 10.6004ZM18.2041 10.5004C18.2041 10.4004 18.3041 10.3004 18.4041 10.3004C18.5041 10.3004 18.7041 10.4004 18.7041 10.5004C18.7041 10.8004 18.2041 10.8004 18.2041 10.5004ZM14.4035 18.7002H9.60352V19.7002H14.4035V18.7002ZM9.60352 16.2998H14.4035V17.2998H9.60352V16.2998Z" fill="#46555F"/>
</svg>
