<svg width="25" height="24" viewBox="0 0 25 24" fill="none" xmlns="http://www.w3.org/2000/svg">
<path fill-rule="evenodd" clip-rule="evenodd" d="M13.0043 2.9C15.3043 0.7 18.9043 0.7 21.1043 2.9C23.3043 5.1 23.3043 8.69999 21.1043 10.9L17.7043 14.3C17.1043 14.9 16.4043 15.3 15.6043 15.6C14.9043 15.8 14.1043 15.9 13.4043 15.9C12.7043 15.9 12.0043 15.8 11.4043 15.5C10.7043 15.2 10.1043 14.8 9.60431 14.3C9.40431 14.1 9.1043 13.7 8.9043 13.4L10.2043 12.1C10.4043 12.5 10.6043 12.8 10.9043 13.1C11.3043 13.5 11.8043 13.8 12.3043 14C12.9043 14.2 13.5043 14.3 14.1043 14.2C14.7043 14.1 15.4043 13.9 15.9043 13.5C16.1043 13.4 16.3043 13.2 16.4043 13.1L17.5043 12L19.8043 9.7C21.3043 8.2 21.3043 5.7 19.8043 4.2C18.3043 2.7 15.8043 2.7 14.3043 4.2L12.0043 6.5C11.2043 6.3 10.4043 6.2 9.60431 6.3L13.0043 2.9ZM4.20392 19.9002C5.70392 21.4002 8.20392 21.4002 9.70392 19.9002L12.0039 17.7002C12.8039 17.9002 13.6039 18.0002 14.4039 17.9002L11.0039 21.3002C8.70391 23.5002 5.10391 23.5002 2.90391 21.3002C0.703906 19.0002 0.703906 15.4002 2.90391 13.2002L6.3039 9.8002C6.9039 9.2002 7.60391 8.8002 8.40391 8.5002C9.10391 8.3002 9.90392 8.2002 10.6039 8.2002C11.3039 8.2002 12.0039 8.3002 12.6039 8.6002C13.3039 8.9002 13.9039 9.3002 14.4039 9.8002C14.6039 10.0002 14.9039 10.4002 15.1039 10.7002L13.8039 12.0002C13.6039 11.6002 13.4039 11.3002 13.1039 11.0002C12.7039 10.6002 12.2039 10.3002 11.7039 10.1002C11.1039 9.9002 10.5039 9.80019 9.90391 9.90019C9.30391 10.0002 8.60392 10.2002 8.10392 10.6002C7.90392 10.7002 7.70392 10.9002 7.60392 11.0002L6.50391 12.1002L4.20392 14.4002C2.70392 15.9002 2.70392 18.4002 4.20392 19.9002Z" fill="#46555F"/>
</svg>
