<svg width="25" height="24" viewBox="0 0 25 24" fill="none" xmlns="http://www.w3.org/2000/svg">
<path fill-rule="evenodd" clip-rule="evenodd" d="M21.8037 22.6998H17.2037V21.9998C17.2037 13.6998 10.4037 6.8998 2.10371 6.8998H1.30371V2.2998H2.00371C12.9037 2.2998 21.8037 11.1998 21.8037 21.9998V22.6998ZM18.7037 21.1998H20.3037C19.9037 11.6998 12.3037 4.0998 2.80371 3.6998V5.2998C11.4037 5.6998 18.3037 12.5998 18.7037 21.1998ZM3.90371 22.7C2.50371 22.7 1.30371 21.5 1.30371 20.1C1.30371 18.7 2.50371 17.5 3.90371 17.5C5.30371 17.5 6.50371 18.7 6.50371 20.1C6.50371 21.5 5.40371 22.7 3.90371 22.7ZM3.90371 19C3.30371 19 2.80371 19.5 2.80371 20.1C2.80371 20.7 3.30371 21.2 3.90371 21.2C4.50371 21.2 5.00371 20.7 5.00371 20.1C5.00371 19.5 4.50371 19 3.90371 19ZM10.0037 22.7004H14.6037V22.0004C14.6037 15.0004 8.90371 9.40039 2.00371 9.40039H1.30371V14.0004H2.00371C6.40371 14.0004 10.0037 17.6004 10.0037 22.0004V22.7004ZM13.1037 21.2004H11.5037C11.1037 16.6004 7.40371 12.9004 2.80371 12.5004V10.9004C8.30371 11.3004 12.7037 15.7004 13.1037 21.2004Z" fill="#FFFFFF"/>
</svg>
